<svg xmlns="http://www.w3.org/2000/svg" width="16" height="16" fill="white" viewBox="0 0 16 16"><path d="M0,2.131c0,-0.515 0.18,-0.939 0.541,-1.274c0.36,-0.334 0.828,-0.502 1.405,-0.502c0.566,0 1.024,0.165 1.374,0.494c0.361,0.34 0.541,0.783 0.541,1.329c0,0.494 -0.175,0.906 -0.525,1.235c-0.36,0.34 -0.834,0.51 -1.421,0.51l-0.015,-0c-0.567,-0 -1.025,-0.17 -1.375,-0.51c-0.35,-0.34 -0.525,-0.767 -0.525,-1.282Zm0.201,13.514l-0,-10.317l3.428,0l0,10.317l-3.428,-0Zm5.328,-0l3.429,-0l-0,-5.761c-0,-0.36 0.041,-0.638 0.123,-0.834c0.144,-0.35 0.363,-0.646 0.656,-0.888c0.294,-0.242 0.662,-0.363 1.105,-0.363c1.153,0 1.729,0.778 1.729,2.332l0,5.514l3.429,-0l0,-5.915c0,-1.524 -0.36,-2.68 -1.081,-3.467c-0.721,-0.788 -1.673,-1.182 -2.857,-1.182c-1.328,0 -2.363,0.572 -3.104,1.714l-0,0.031l-0.016,0l0.016,-0.031l-0,-1.467l-3.429,0c0.021,0.33 0.031,1.354 0.031,3.074c-0,1.719 -0.01,4.133 -0.031,7.243Z"/></svg>